<svg xmlns="http://www.w3.org/2000/svg" viewBox="150.57998962402343 90.96000671386719 273.82406416749643 353.42000007629395"> <svg version="1.1" id="Layer_1" xmlns="http://www.w3.org/2000/svg" xmlns:xlink="http://www.w3.org/1999/xlink" x="220.57998962402343" y="160.9600067138672" viewBox="62.30078125 78 726.69921875 809.80078125" xml:space="preserve" height="149" width="133.82406416749643" preserveAspectRatio="xMinYMin" enable-background="new 0 0 868.6 926.8" style="overflow: visible;"><polygon class="st0" points="772.2,671.2 772.2,268.6 476.1,97.6 423.5,150.5 370.9,97.6 74.8,268.6 74.8,671.2 423.5,872.6 " style="fill: #c235d9; fill-opacity: 0;"></polygon><path d="M476,78l-50.2,50.4L375.6,78l-313,180.7v98.9l-0.3,0.1l0.3,1.3v319.1l363.2,209.7L789,678.1V258.7L476,78z M760,351.7  L676.2,329c0.2-2.3,0.4-4.6,0.4-6.9c0-35.9-29.2-65.2-65.2-65.2c-6.7,0-13.3,1-19.6,3l-2.5-5.7c-1.6-3.8-4.8-6.7-8.7-8l-38.7-13.1  l38.8-61.2L760,275.5V351.7z M250.4,510.6c21.9,4.1,38.5,23.4,38.5,46.4c0,13.9-6.1,27-16.7,36c-5,4.2-6.5,11.3-3.7,17.2l40.8,86.7  c1.3,2.7,3.4,5,6,6.5c1.5,0.8,34.4,19,93.3,21.7l0.9,119.8L191.5,719.1L250.4,510.6z M422.9,696.4c-24.1,0-44-3-59.1-6.5l60.4-53.8  l60.5,53.5C468.9,693.3,448.1,696.4,422.9,696.4z M437.5,725.1c58.9-2.7,93.9-20.6,95.5-21.4c2.8-1.5,5.1-3.8,6.4-6.7l40.8-86.7  c2.8-5.9,1.3-13-3.7-17.2c-10.6-9-16.7-22.1-16.7-36c0-21.8,14.9-40.2,35.1-45.6l59.6,211l-216,124.7L437.5,725.1z M596.1,481.6  c-36.9,5.3-65.3,37.2-65.3,75.4c0,18.6,6.8,36.4,18.9,50.2l-33.6,71.3c-21.7-19.1-62.9-55.5-64-56.6c-11.4-10.1-15.3-26.5-11.3-41  c4.2-15.4,18.7-30.3,35.9-26.6c2,0.4,3.5,1.5,5.5,0.8c5.4-1.8,8.8-7.1,10.2-12.3c1.4-5.4,0.8-11.4,0.8-17v-61.1  c0-11.7,5.6-22.7,15.1-29.5l60.3-43.4c8.7-6.2,10.4-18.5,3.8-26.9L550,336.5c-3.9-4.9-10.8-6.2-16.2-3l-46.2,27.4  c-14.6,8.7-23.5,24.3-23.5,41.3v118.5h-20.3h-10.8h-16.6h-15.3h-15.7V402.1c0-17-8.9-32.7-23.5-41.3l-46.2-27.4  c-5.4-3.2-12.3-1.9-16.2,3l-22.3,28.4c-6.6,8.4-4.9,20.6,3.8,26.9l60.3,43.4c9.5,6.8,15.1,17.8,15.1,29.5v61.1  c0,5.6-0.6,11.5,0.8,17c1.4,5.3,4.8,10.5,10.2,12.3c2.1,0.7,3.6-0.3,5.5-0.8c15.9-3.8,30.8,7.8,36.1,22.2  c5.8,15.6-0.3,34.6-12.5,45.5c0,0-42.1,37.5-63.8,56.8L299,607.2c12.1-13.8,18.9-31.6,18.9-50.2c0-38.3-28.5-70.1-65.3-75.4  l-26.3-77.8l57.1-132.2l74.7-25.3c3.9,10.9,10.4,20.7,19.1,28.7c13.3,12.1,30.5,18.8,48.5,18.8c30.6,0,57-19.1,67.3-46.6l72.2,24.4  l57.1,132.2L596.1,481.6z M197.2,397.8L91.6,573.3V379.8l87.7-23.8c6.2,10.1,15,18.5,25.8,24l-7.5,17.4c-0.1,0.2-0.1,0.3-0.2,0.5  L197.2,397.8z M214.2,351.7c-9.5-6.6-15.5-17.6-15.5-29.7c0-5.7,1.3-11.2,3.7-16c2.8-5.6,7-10.4,12.1-13.9  c5.8-3.9,12.8-6.3,20.3-6.3c2.5,0,5,0.3,7.5,0.8L214.2,351.7z M632.1,351.7l-28.1-65.1c2.4-0.5,4.9-0.8,7.5-0.8  c19.9,0,36.2,16.2,36.2,36.2C647.6,334.1,641.6,345.1,632.1,351.7z M425.8,169.6l55-55.3l74.7,43.1l-41.9,66.1l-26.2-8.9  c-4.2-1.4-8.7-0.9-12.4,1.5c-3.7,2.4-6.1,6.3-6.6,10.6c-2.4,21.7-20.7,38-42.6,38c-22.2,0-40.6-16.7-42.7-38.7  c-0.4-4.4-2.8-8.4-6.6-10.8c-3.7-2.4-8.3-3-12.5-1.6l-28.2,9.5l-41.2-65.1l76.1-43.9L425.8,169.6z M91.6,275.5l178-102.8l38.1,60.1  L268,246.2c-3.9,1.3-7,4.2-8.7,8l-2.8,6.4c-6.9-2.5-14.3-3.7-21.7-3.7c-35.9,0-65.2,29.2-65.2,65.2c0,2.1,0.1,4.3,0.3,6.4  l-78.5,21.3V275.5z M91.6,627.4l1,0.6l114.6-190.4l18.4,54.4l-59.9,212.2l-74-42.7V627.4z M680.3,707.4l-59.2-209.5l20-59.3L760,636  v25.4L680.3,707.4z M652.1,400.3c-0.2-1-0.5-1.9-0.9-2.8l-8-18.5c9.7-5.4,17.8-13.2,23.5-22.5l93.3,25.3v197.9L652.1,400.3z" style="fill: #be8c55; fill-opacity: 1;"></path><path class="st0" d="M536.2,373.2L536.2,373.2c4.1,4.9,3.2,12.2-2,15.9l-12.6,9c-7.4,5.3-17.7-0.2-17.3-9.3l0-0.9    c0.1-3.5,2-6.8,5-8.7l12.5-8.1C526.5,368.1,532.6,369,536.2,373.2z" style="fill: #FFFFFF;"></path><path class="st0" d="M317.2,373.2L317.2,373.2c-4.1,4.9-3.2,12.2,2,15.9l12.6,9c7.4,5.3,17.7-0.2,17.3-9.3l0-0.9    c-0.1-3.5-2-6.8-5-8.7l-12.5-8.1C326.9,368.1,320.7,369,317.2,373.2z" style="fill: #FFFFFF;"></path></svg> <svg y="345.4600067138672" viewBox="1.4800000190734863 8.920000076293945 124.22999572753906 28.920000076293945" x="225.3849868774414" height="28.920000076293945" width="124.22999572753906" style="overflow: visible;"><g fill="#be8c55" fill-opacity="1" style=""><path d="M10.76 32.52L10.76 32.52Q12.08 32.52 12.94 32.30Q13.80 32.08 14.32 31.70Q14.84 31.32 15.04 30.80Q15.24 30.28 15.24 29.64L15.24 29.64Q15.24 28.28 13.96 27.38Q12.68 26.48 9.56 25.44L9.56 25.44Q8.20 24.96 6.84 24.34Q5.48 23.72 4.40 22.78Q3.32 21.84 2.64 20.50Q1.96 19.16 1.96 17.24L1.96 17.24Q1.96 15.32 2.68 13.78Q3.40 12.24 4.72 11.16Q6.04 10.08 7.92 9.50Q9.80 8.92 12.16 8.92L12.16 8.92Q14.96 8.92 17 9.52Q19.04 10.12 20.36 10.84L20.36 10.84L18.56 15.76Q17.40 15.16 15.98 14.70Q14.56 14.24 12.56 14.24L12.56 14.24Q10.32 14.24 9.34 14.86Q8.36 15.48 8.36 16.76L8.36 16.76Q8.36 17.52 8.72 18.04Q9.08 18.56 9.74 18.98Q10.40 19.40 11.26 19.74Q12.12 20.08 13.16 20.44L13.16 20.44Q15.32 21.24 16.92 22.02Q18.52 22.80 19.58 23.84Q20.64 24.88 21.16 26.28Q21.68 27.68 21.68 29.68L21.68 29.68Q21.68 33.56 18.96 35.70Q16.24 37.84 10.76 37.84L10.76 37.84Q8.92 37.84 7.44 37.62Q5.96 37.40 4.82 37.08Q3.68 36.76 2.86 36.40Q2.04 36.04 1.48 35.72L1.48 35.72L3.24 30.76Q4.48 31.44 6.30 31.98Q8.12 32.52 10.76 32.52ZM39.46 23.40L39.46 23.40Q39.46 25.44 39.96 27.08Q40.46 28.72 41.40 29.90Q42.34 31.08 43.70 31.72Q45.06 32.36 46.82 32.36L46.82 32.36Q48.54 32.36 49.92 31.72Q51.30 31.08 52.24 29.90Q53.18 28.72 53.68 27.08Q54.18 25.44 54.18 23.40L54.18 23.40Q54.18 21.36 53.68 19.70Q53.18 18.04 52.24 16.86Q51.30 15.68 49.92 15.04Q48.54 14.40 46.82 14.40L46.82 14.40Q45.06 14.40 43.70 15.06Q42.34 15.72 41.40 16.90Q40.46 18.08 39.96 19.74Q39.46 21.40 39.46 23.40ZM60.62 23.40L60.62 23.40Q60.62 26.96 59.56 29.66Q58.50 32.36 56.66 34.18Q54.82 36 52.28 36.92Q49.74 37.84 46.82 37.84L46.82 37.84Q43.98 37.84 41.46 36.92Q38.94 36 37.06 34.18Q35.18 32.36 34.10 29.66Q33.02 26.96 33.02 23.40L33.02 23.40Q33.02 19.84 34.14 17.14Q35.26 14.44 37.16 12.60Q39.06 10.76 41.56 9.84Q44.06 8.92 46.82 8.92L46.82 8.92Q49.66 8.92 52.18 9.84Q54.70 10.76 56.58 12.60Q58.46 14.44 59.54 17.14Q60.62 19.84 60.62 23.40ZM79.80 31.92L92.08 31.92L92.08 37.28L73.56 37.28L73.56 9.56L79.80 9.56L79.80 31.92ZM114.67 37.28L108.67 37.28Q107.03 33.80 105.43 30.04Q103.83 26.28 102.39 22.60Q100.95 18.92 99.73 15.56Q98.51 12.20 97.63 9.56L97.63 9.56L104.51 9.56Q105.31 11.96 106.25 14.74Q107.19 17.52 108.17 20.28Q109.15 23.04 110.07 25.56Q110.99 28.08 111.79 29.92L111.79 29.92Q112.55 28.08 113.49 25.56Q114.43 23.04 115.41 20.28Q116.39 17.52 117.33 14.74Q118.27 11.96 119.07 9.56L119.07 9.56L125.71 9.56Q124.79 12.20 123.59 15.56Q122.39 18.92 120.95 22.60Q119.51 26.28 117.91 30.04Q116.31 33.80 114.67 37.28L114.67 37.28Z" transform="translate(0, 0)"></path></g></svg></svg>